<?xml version="1.0" encoding="utf-8"?>
<!DOCTYPE svg PUBLIC "-//W3C//DTD SVG 1.1//EN" "http://www.w3.org/Graphics/SVG/1.1/DTD/svg11.dtd">
<svg version="1.1" id="Layer_1" xmlns="http://www.w3.org/2000/svg" xmlns:xlink="http://www.w3.org/1999/xlink" x="0px" y="0px"
	 width="215.06px" height="36.169px" viewBox="0 0 215.06 36.169" style="fill-opacity: 0.6; fill: #000;"
	 xml:space="preserve">
<g>
	<path d="M13.422,14.738c-0.1-0.764-0.358-1.453-0.772-2.067c-0.603-0.827-1.539-1.241-2.808-1.241c-1.81,0-3.047,0.896-3.712,2.688
		c-0.352,0.95-0.528,2.213-0.528,3.788c0,1.5,0.176,2.706,0.528,3.619c0.641,1.704,1.847,2.557,3.618,2.557
		c1.256,0,2.148-0.339,2.676-1.016c0.528-0.677,0.848-1.554,0.961-2.632h5.47c-0.125,1.629-0.715,3.171-1.769,4.624
		c-1.681,2.344-4.171,3.516-7.47,3.516s-5.727-0.978-7.283-2.933S0,21.152,0,18.037c0-3.515,0.859-6.25,2.578-8.205
		s4.089-2.933,7.113-2.933c2.572,0,4.676,0.576,6.313,1.729s2.606,3.189,2.907,6.109H13.422z"/>
	<path d="M41.128,25.372c-1.729,2.135-4.355,3.202-7.876,3.202c-3.522,0-6.147-1.067-7.877-3.202s-2.594-4.705-2.594-7.71
		c0-2.955,0.865-5.516,2.594-7.683c1.729-2.166,4.355-3.249,7.877-3.249c3.521,0,6.147,1.083,7.876,3.249
		c1.729,2.167,2.594,4.728,2.594,7.683C43.722,20.667,42.857,23.237,41.128,25.372z M36.842,22.411
		c0.839-1.114,1.259-2.697,1.259-4.749c0-2.053-0.42-3.633-1.259-4.74c-0.84-1.107-2.043-1.661-3.609-1.661
		c-1.567,0-2.773,0.554-3.619,1.661c-0.846,1.107-1.269,2.688-1.269,4.74c0,2.052,0.423,3.635,1.269,4.749
		c0.846,1.114,2.052,1.671,3.619,1.671C34.799,24.082,36.002,23.525,36.842,22.411z"/>
	<path d="M74.586,7.463c0.877,0.352,1.673,0.966,2.388,1.843c0.576,0.714,0.965,1.592,1.166,2.632
		c0.125,0.689,0.188,1.698,0.188,3.026L78.29,27.879h-5.489V14.832c0-0.776-0.125-1.416-0.376-1.917
		c-0.477-0.952-1.354-1.429-2.632-1.429c-1.479,0-2.5,0.614-3.064,1.842c-0.289,0.652-0.433,1.436-0.433,2.351v12.2h-5.396v-12.2
		c0-1.216-0.125-2.1-0.376-2.651c-0.451-0.989-1.334-1.484-2.65-1.484c-1.529,0-2.557,0.495-3.083,1.484
		c-0.289,0.564-0.433,1.404-0.433,2.52v12.332h-5.433V7.426h5.207v2.989c0.665-1.065,1.291-1.823,1.88-2.274
		c1.041-0.803,2.388-1.203,4.042-1.203c1.566,0,2.832,0.345,3.797,1.033c0.777,0.64,1.366,1.46,1.767,2.463
		c0.702-1.203,1.573-2.087,2.613-2.65c1.103-0.564,2.331-0.846,3.685-0.846C72.82,6.938,73.709,7.112,74.586,7.463z"/>
	<path d="M110.282,7.463c0.877,0.352,1.673,0.966,2.388,1.843c0.576,0.714,0.965,1.592,1.166,2.632
		c0.125,0.689,0.188,1.698,0.188,3.026l-0.038,12.915h-5.489V14.832c0-0.776-0.125-1.416-0.376-1.917
		c-0.477-0.952-1.354-1.429-2.632-1.429c-1.479,0-2.5,0.614-3.064,1.842c-0.289,0.652-0.433,1.436-0.433,2.351v12.2h-5.396v-12.2
		c0-1.216-0.125-2.1-0.376-2.651c-0.451-0.989-1.334-1.484-2.65-1.484c-1.529,0-2.557,0.495-3.083,1.484
		c-0.289,0.564-0.433,1.404-0.433,2.52v12.332h-5.433V7.426h5.207v2.989c0.665-1.065,1.291-1.823,1.88-2.274
		c1.041-0.803,2.388-1.203,4.042-1.203c1.566,0,2.832,0.345,3.797,1.033c0.777,0.64,1.366,1.46,1.767,2.463
		c0.702-1.203,1.573-2.087,2.613-2.65c1.103-0.564,2.331-0.846,3.685-0.846C108.516,6.938,109.405,7.112,110.282,7.463z"/>
	<path d="M125.75,7.389v12.351c0,1.165,0.137,2.043,0.412,2.632c0.486,1.04,1.44,1.561,2.862,1.561c1.821,0,3.068-0.74,3.741-2.219
		c0.349-0.802,0.524-1.861,0.524-3.177V7.389h5.433v20.49h-5.208v-2.895c-0.05,0.063-0.175,0.25-0.375,0.563
		s-0.437,0.589-0.712,0.827c-0.837,0.752-1.647,1.266-2.428,1.541c-0.781,0.276-1.697,0.414-2.747,0.414
		c-3.024,0-5.061-1.09-6.111-3.271c-0.588-1.203-0.881-2.976-0.881-5.319V7.389H125.75z"/>
	<path d="M161.915,8.563c1.342,1.108,2.013,2.948,2.013,5.517v13.799h-5.489V15.415c0-1.077-0.143-1.904-0.429-2.481
		c-0.523-1.053-1.518-1.579-2.986-1.579c-1.804,0-3.042,0.771-3.714,2.313c-0.348,0.814-0.522,1.854-0.522,3.12v11.092h-5.357V7.426
		h5.188v2.989c0.686-1.053,1.335-1.812,1.947-2.274c1.098-0.828,2.49-1.241,4.174-1.241C158.848,6.899,160.573,7.454,161.915,8.563z
		"/>
	<path d="M175.88,4.944h-5.433V0h5.433V4.944z M170.447,7.389h5.433v20.49h-5.433V7.389z"/>
	<path d="M180.426,11.393V7.576h2.857V1.861h5.302v5.715h3.327v3.816h-3.327v10.828c0,0.84,0.106,1.362,0.319,1.569
		c0.213,0.207,0.865,0.311,1.955,0.311c0.163,0,0.335-0.003,0.517-0.01c0.182-0.006,0.36-0.016,0.536-0.028v4.004l-2.538,0.095
		c-2.531,0.087-4.261-0.351-5.188-1.316c-0.602-0.613-0.902-1.56-0.902-2.839V11.393H180.426z"/>
	<path d="M197.624,31.808l0.677,0.038c0.526,0.024,1.027,0.006,1.504-0.057c0.476-0.063,0.877-0.207,1.203-0.433
		c0.313-0.213,0.604-0.657,0.874-1.335c0.27-0.676,0.386-1.09,0.348-1.24l-7.529-21.393h5.959l4.474,15.113l4.229-15.113h5.696
		l-7.025,20.152c-1.358,3.885-2.432,6.294-3.222,7.228s-2.371,1.4-4.743,1.4c-0.477,0-0.859-0.003-1.147-0.009
		c-0.289-0.007-0.722-0.028-1.299-0.066V31.808z"/>
</g>
</svg>
