<?xml version="1.0" encoding="utf-8"?>
<!DOCTYPE svg PUBLIC "-//W3C//DTD SVG 1.1//EN" "http://www.w3.org/Graphics/SVG/1.1/DTD/svg11.dtd">
<svg version="1.1" id="Layer_1" xmlns="http://www.w3.org/2000/svg" xmlns:xlink="http://www.w3.org/1999/xlink" x="0px" y="0px"
	 width="357.307px" height="36.264px" viewBox="0 0 357.307 36.264" style="fill-opacity: 0.6; fill: #000;"
	 xml:space="preserve">
<g>
	<path d="M5.489,7.389v12.351c0,1.165,0.137,2.043,0.412,2.632c0.486,1.04,1.44,1.561,2.862,1.561c1.821,0,3.068-0.74,3.741-2.219
		c0.349-0.802,0.524-1.861,0.524-3.177V7.389h5.433v20.49h-5.208v-2.895c-0.05,0.063-0.175,0.25-0.375,0.563
		s-0.437,0.589-0.712,0.827c-0.837,0.752-1.647,1.266-2.428,1.541c-0.781,0.276-1.697,0.414-2.747,0.414
		c-3.024,0-5.061-1.09-6.111-3.271C0.293,23.855,0,22.083,0,19.739V7.389H5.489z"/>
	<path d="M42.439,9.588c1.671,1.767,2.507,4.361,2.507,7.782c0,3.609-0.817,6.36-2.451,8.253c-1.633,1.893-3.737,2.839-6.31,2.839
		c-1.64,0-3.002-0.407-4.087-1.222c-0.593-0.451-1.173-1.109-1.74-1.975v10.678h-5.302V7.389h5.132v3.026
		c0.58-0.89,1.198-1.592,1.854-2.105c1.198-0.915,2.624-1.372,4.276-1.372C38.728,6.938,40.768,7.82,42.439,9.588z M38.328,13.441
		c-0.728-1.216-1.909-1.823-3.542-1.823c-1.962,0-3.311,0.921-4.045,2.763c-0.38,0.979-0.57,2.219-0.57,3.723
		c0,2.381,0.639,4.055,1.917,5.02c0.759,0.563,1.659,0.846,2.697,0.846c1.507,0,2.656-0.576,3.448-1.729s1.187-2.688,1.187-4.605
		C39.419,16.055,39.056,14.657,38.328,13.441z"/>
	<path d="M62.522,14.738c-0.1-0.764-0.358-1.453-0.772-2.067c-0.603-0.827-1.539-1.241-2.808-1.241c-1.81,0-3.047,0.896-3.712,2.688
		c-0.352,0.95-0.528,2.213-0.528,3.788c0,1.5,0.176,2.706,0.528,3.619c0.641,1.704,1.847,2.557,3.618,2.557
		c1.256,0,2.148-0.339,2.676-1.016c0.528-0.677,0.848-1.554,0.961-2.632h5.47c-0.125,1.629-0.715,3.171-1.769,4.624
		c-1.681,2.344-4.171,3.516-7.47,3.516s-5.727-0.978-7.283-2.933S49.1,21.152,49.1,18.037c0-3.515,0.859-6.25,2.578-8.205
		s4.089-2.933,7.113-2.933c2.572,0,4.676,0.576,6.313,1.729s2.606,3.189,2.907,6.109H62.522z"/>
	<path d="M90.306,25.372c-1.729,2.135-4.355,3.202-7.876,3.202c-3.522,0-6.147-1.067-7.877-3.202s-2.594-4.705-2.594-7.71
		c0-2.955,0.865-5.516,2.594-7.683c1.729-2.166,4.355-3.249,7.877-3.249c3.521,0,6.147,1.083,7.876,3.249
		c1.729,2.167,2.594,4.728,2.594,7.683C92.9,20.667,92.035,23.237,90.306,25.372z M86.02,22.411
		c0.839-1.114,1.259-2.697,1.259-4.749c0-2.053-0.42-3.633-1.259-4.74c-0.84-1.107-2.043-1.661-3.609-1.661
		c-1.567,0-2.773,0.554-3.619,1.661c-0.846,1.107-1.269,2.688-1.269,4.74c0,2.052,0.423,3.635,1.269,4.749
		c0.846,1.114,2.052,1.671,3.619,1.671C83.977,24.082,85.18,23.525,86.02,22.411z"/>
	<path d="M123.841,7.463c0.877,0.352,1.673,0.966,2.388,1.843c0.576,0.714,0.965,1.592,1.166,2.632
		c0.125,0.689,0.188,1.698,0.188,3.026l-0.038,12.915h-5.489V14.832c0-0.776-0.125-1.416-0.376-1.917
		c-0.477-0.952-1.354-1.429-2.632-1.429c-1.479,0-2.5,0.614-3.064,1.842c-0.289,0.652-0.433,1.436-0.433,2.351v12.2h-5.396v-12.2
		c0-1.216-0.125-2.1-0.376-2.651c-0.451-0.989-1.334-1.484-2.65-1.484c-1.529,0-2.557,0.495-3.083,1.484
		c-0.289,0.564-0.433,1.404-0.433,2.52v12.332h-5.433V7.426h5.207v2.989c0.665-1.065,1.291-1.823,1.88-2.274
		c1.041-0.803,2.388-1.203,4.042-1.203c1.566,0,2.832,0.345,3.797,1.033c0.777,0.64,1.366,1.46,1.767,2.463
		c0.702-1.203,1.573-2.087,2.613-2.65c1.103-0.564,2.331-0.846,3.685-0.846C122.075,6.938,122.964,7.112,123.841,7.463z"/>
	<path d="M139.556,4.944h-5.433V0h5.433V4.944z M134.123,7.389h5.433v20.49h-5.433V7.389z"/>
	<path d="M162.807,8.563c1.342,1.108,2.013,2.948,2.013,5.517v13.799h-5.489V15.415c0-1.077-0.143-1.904-0.429-2.481
		c-0.523-1.053-1.518-1.579-2.986-1.579c-1.804,0-3.042,0.771-3.714,2.313c-0.348,0.814-0.522,1.854-0.522,3.12v11.092h-5.357V7.426
		h5.188v2.989c0.686-1.053,1.335-1.812,1.947-2.274c1.098-0.828,2.49-1.241,4.174-1.241C159.74,6.899,161.465,7.454,162.807,8.563z"
		/>
	<path d="M181.478,7.369c1.302,0.539,2.353,1.529,3.154,2.971V7.389h5.226v19.438c0,2.645-0.445,4.637-1.334,5.979
		c-1.529,2.306-4.462,3.459-8.798,3.459c-2.62,0-4.756-0.515-6.411-1.542s-2.569-2.563-2.745-4.605h5.828
		c0.15,0.626,0.395,1.077,0.733,1.354c0.577,0.488,1.548,0.733,2.914,0.733c1.93,0,3.221-0.646,3.873-1.937
		c0.426-0.827,0.639-2.219,0.639-4.174v-1.315c-0.514,0.877-1.065,1.535-1.654,1.974c-1.065,0.814-2.45,1.222-4.154,1.222
		c-2.632,0-4.734-0.924-6.307-2.772c-1.573-1.849-2.359-4.353-2.359-7.511c0-3.045,0.757-5.604,2.271-7.679
		c1.515-2.074,3.661-3.111,6.44-3.111C179.819,6.899,180.714,7.057,181.478,7.369z M183.302,22.061
		c0.861-0.946,1.292-2.453,1.292-4.521c0-1.942-0.409-3.421-1.227-4.436c-0.817-1.016-1.912-1.523-3.285-1.523
		c-1.873,0-3.164,0.884-3.875,2.65c-0.375,0.94-0.562,2.1-0.562,3.479c0,1.19,0.199,2.249,0.599,3.177
		c0.724,1.729,2.021,2.595,3.894,2.595C181.387,23.48,182.441,23.007,183.302,22.061z"/>
	<path d="M220.892,14.738c-0.1-0.764-0.358-1.453-0.772-2.067c-0.603-0.827-1.539-1.241-2.808-1.241
		c-1.81,0-3.047,0.896-3.712,2.688c-0.352,0.95-0.528,2.213-0.528,3.788c0,1.5,0.176,2.706,0.528,3.619
		c0.641,1.704,1.847,2.557,3.618,2.557c1.256,0,2.148-0.339,2.676-1.016c0.528-0.677,0.848-1.554,0.961-2.632h5.47
		c-0.125,1.629-0.715,3.171-1.769,4.624c-1.681,2.344-4.171,3.516-7.47,3.516s-5.727-0.978-7.283-2.933s-2.333-4.489-2.333-7.604
		c0-3.515,0.859-6.25,2.578-8.205s4.089-2.933,7.113-2.933c2.572,0,4.676,0.576,6.313,1.729s2.606,3.189,2.907,6.109H220.892z"/>
	<path d="M246.313,7.502c1.029,0.438,1.875,1.11,2.536,2.013c0.562,0.766,0.905,1.553,1.029,2.361
		c0.125,0.81,0.188,2.13,0.188,3.961v12.042h-5.471V15.401c0-1.104-0.187-1.995-0.56-2.673c-0.485-0.953-1.406-1.43-2.762-1.43
		c-1.406,0-2.473,0.474-3.201,1.421c-0.728,0.947-1.091,2.299-1.091,4.056v11.104h-5.357V0.264h5.357v9.775
		c0.774-1.19,1.669-2.021,2.686-2.491c1.017-0.47,2.087-0.705,3.21-0.705C244.139,6.843,245.284,7.063,246.313,7.502z"/>
	<path d="M264.761,15.415c0.997-0.125,1.71-0.282,2.14-0.47c0.77-0.326,1.155-0.833,1.155-1.522c0-0.84-0.295-1.42-0.886-1.739
		s-1.458-0.479-2.601-0.479c-1.283,0-2.191,0.313-2.725,0.94c-0.381,0.464-0.636,1.09-0.763,1.88h-5.169
		c0.113-1.792,0.617-3.265,1.51-4.418c1.422-1.805,3.864-2.707,7.326-2.707c2.253,0,4.254,0.445,6.004,1.335
		s2.625,2.569,2.625,5.038v9.399c0,0.651,0.012,1.441,0.037,2.368c0.038,0.702,0.144,1.179,0.32,1.429
		c0.175,0.251,0.438,0.458,0.79,0.621v0.789h-5.828c-0.163-0.414-0.276-0.802-0.338-1.166c-0.063-0.363-0.113-0.776-0.15-1.24
		c-0.744,0.802-1.601,1.485-2.572,2.049c-1.16,0.664-2.471,0.996-3.933,0.996c-1.866,0-3.407-0.529-4.623-1.588
		s-1.824-2.56-1.824-4.502c0-2.52,0.978-4.343,2.935-5.471c1.073-0.614,2.651-1.053,4.735-1.316L264.761,15.415z M268.037,17.916
		c-0.343,0.213-0.689,0.385-1.039,0.517c-0.35,0.132-0.829,0.254-1.439,0.366l-1.219,0.226c-1.144,0.201-1.964,0.445-2.463,0.733
		c-0.844,0.488-1.266,1.247-1.266,2.274c0,0.915,0.258,1.576,0.773,1.983s1.142,0.611,1.88,0.611c1.171,0,2.249-0.339,3.235-1.016
		s1.499-1.911,1.537-3.703V17.916z"/>
	<path d="M296.829,9.588c1.671,1.767,2.507,4.361,2.507,7.782c0,3.609-0.817,6.36-2.451,8.253c-1.633,1.893-3.737,2.839-6.31,2.839
		c-1.64,0-3.002-0.407-4.087-1.222c-0.593-0.451-1.173-1.109-1.74-1.975v10.678h-5.302V7.389h5.132v3.026
		c0.58-0.89,1.198-1.592,1.854-2.105c1.198-0.915,2.624-1.372,4.276-1.372C293.117,6.938,295.157,7.82,296.829,9.588z
		 M292.717,13.441c-0.728-1.216-1.909-1.823-3.542-1.823c-1.962,0-3.311,0.921-4.045,2.763c-0.38,0.979-0.57,2.219-0.57,3.723
		c0,2.381,0.639,4.055,1.917,5.02c0.759,0.563,1.659,0.846,2.697,0.846c1.507,0,2.656-0.576,3.448-1.729s1.187-2.688,1.187-4.605
		C293.809,16.055,293.445,14.657,292.717,13.441z"/>
	<path d="M318.007,7.804c1.43,0.64,2.61,1.65,3.541,3.031c0.839,1.217,1.384,2.629,1.633,4.235c0.144,0.941,0.203,2.298,0.176,4.067
		h-14.924c0.083,2.056,0.797,3.496,2.143,4.323c0.818,0.515,1.803,0.771,2.954,0.771c1.221,0,2.212-0.313,2.975-0.94
		c0.416-0.339,0.784-0.809,1.103-1.41h5.47c-0.144,1.216-0.806,2.45-1.986,3.704c-1.835,1.992-4.405,2.988-7.709,2.988
		c-2.727,0-5.133-0.84-7.218-2.521s-3.126-4.416-3.126-8.204c0-3.55,0.94-6.271,2.823-8.165c1.881-1.895,4.324-2.842,7.327-2.842
		C314.971,6.843,316.578,7.163,318.007,7.804z M309.992,12.432c-0.757,0.78-1.232,1.838-1.427,3.172h9.23
		c-0.098-1.423-0.573-2.502-1.427-3.238s-1.914-1.104-3.178-1.104C311.815,11.261,310.749,11.651,309.992,12.432z"/>
	<path d="M333.077,27.879h-5.357V0.17h5.357V27.879z"/>
	<path d="M343.998,21.337c0.113,0.952,0.359,1.629,0.737,2.03c0.667,0.715,1.901,1.071,3.702,1.071c1.058,0,1.898-0.156,2.521-0.47
		c0.624-0.313,0.935-0.783,0.935-1.41c0-0.602-0.251-1.059-0.753-1.372c-0.502-0.313-2.371-0.853-5.605-1.616
		c-2.329-0.577-3.969-1.298-4.921-2.162c-0.953-0.853-1.429-2.08-1.429-3.685c0-1.893,0.744-3.519,2.232-4.879
		c1.488-1.359,3.583-2.039,6.283-2.039c2.562,0,4.65,0.511,6.264,1.532s2.54,2.785,2.779,5.291h-5.357
		c-0.076-0.688-0.271-1.233-0.584-1.635c-0.591-0.727-1.596-1.091-3.016-1.091c-1.169,0-2.001,0.182-2.498,0.546
		c-0.496,0.363-0.744,0.789-0.744,1.277c0,0.614,0.264,1.06,0.792,1.335c0.528,0.289,2.392,0.783,5.594,1.485
		c2.134,0.501,3.734,1.26,4.8,2.274c1.053,1.028,1.579,2.313,1.579,3.854c0,2.029-0.757,3.688-2.27,4.972s-3.852,1.927-7.016,1.927
		c-3.228,0-5.61-0.68-7.149-2.039c-1.539-1.36-2.308-3.093-2.308-5.198H343.998z"/>
</g>
</svg>
