<?xml version="1.0" encoding="utf-8"?>
<!DOCTYPE svg PUBLIC "-//W3C//DTD SVG 1.1//EN" "http://www.w3.org/Graphics/SVG/1.1/DTD/svg11.dtd">
<svg version="1.1" id="BLACK" xmlns="http://www.w3.org/2000/svg" xmlns:xlink="http://www.w3.org/1999/xlink" x="0px" y="0px"
	 width="964.094px" height="245.913px" viewBox="0 0 964.094 245.913" style="fill: #fff; fill-opacity: 0.6;"
	 xml:space="preserve">
<g>
	<g>
		<path class="st0" d="M26.078,23.195C41.196,7.746,60.428,0.021,83.778,0.021c31.242,0,54.083,10.358,68.531,31.069
			c7.978,11.631,12.261,23.306,12.849,35.021h-39.22c-2.495-9-5.698-15.79-9.607-20.376c-6.983-8.15-17.339-12.225-31.061-12.225
			c-13.972,0-24.994,5.751-33.061,17.256c-8.066,11.503-12.097,27.78-12.097,48.832c0,21.055,4.256,36.824,12.766,47.307
			c8.512,10.486,19.327,15.728,32.448,15.728c13.452,0,23.709-4.5,30.767-13.499c3.904-4.838,7.142-12.097,9.718-21.773h38.964
			c-3.359,20.458-11.946,37.097-25.763,49.916c-13.815,12.82-31.513,19.226-53.097,19.226c-26.707,0-47.705-8.657-62.987-25.976
			C7.642,153.125,0,129.269,0,98.963C0,66.195,8.693,40.941,26.078,23.195z"/>
		<path class="st0" d="M274.191,53.251c6.971,2.975,12.701,7.522,17.179,13.638c3.801,5.185,6.125,10.516,6.971,15.995
			c0.846,5.482,1.271,14.424,1.271,26.828v81.569h-37.056v-84.52c0-7.479-1.264-13.513-3.793-18.101
			c-3.285-6.459-9.521-9.691-18.707-9.691c-9.521,0-16.749,3.208-21.679,9.625c-4.929,6.417-7.393,15.573-7.393,27.471v75.215
			h-36.293V4.224h36.293V70.44c5.241-8.067,11.305-13.692,18.194-16.874c6.889-3.185,14.137-4.775,21.744-4.775
			C259.46,48.791,267.216,50.278,274.191,53.251z"/>
		<path class="st0" d="M374.154,106.857c6.756-0.849,11.587-1.912,14.496-3.185c5.218-2.206,7.827-5.642,7.827-10.314
			c0-5.686-2.003-9.614-6.004-11.777c-4.002-2.166-9.875-3.247-17.619-3.247c-8.689,0-14.846,2.123-18.458,6.366
			c-2.583,3.141-4.304,7.385-5.164,12.733h-35.017c0.765-12.139,4.176-22.112,10.23-29.924
			c9.635-12.224,26.176-18.336,49.623-18.336c15.261,0,28.817,3.012,40.667,9.041c11.852,6.029,17.776,17.401,17.776,34.126v63.669
			c0,4.413,0.086,9.764,0.255,16.047c0.256,4.753,0.977,7.98,2.167,9.675c1.187,1.7,2.968,3.103,5.348,4.202v5.348h-39.478
			c-1.104-2.802-1.867-5.432-2.292-7.895c-0.424-2.46-0.762-5.262-1.017-8.403c-5.04,5.432-10.845,10.059-17.419,13.879
			c-7.856,4.5-16.736,6.748-26.644,6.748c-12.638,0-23.076-3.588-31.315-10.759c-8.239-7.174-12.358-17.337-12.358-30.499
			c0-17.063,6.626-29.415,19.882-37.055c7.271-4.159,17.963-7.129,32.072-8.913L374.154,106.857z M396.346,123.792
			c-2.324,1.445-4.669,2.613-7.034,3.503c-2.369,0.889-5.616,1.718-9.747,2.483l-8.26,1.529c-7.744,1.357-13.305,3.012-16.683,4.966
			c-5.716,3.309-8.572,8.446-8.572,15.406c0,6.2,1.746,10.676,5.236,13.436c3.49,2.758,7.735,4.139,12.736,4.139
			c7.93,0,15.235-2.293,21.915-6.878c6.682-4.581,10.151-12.942,10.409-25.085V123.792z"/>
		<path class="st0" d="M566.383,67.383c11.323,11.969,16.982,29.543,16.982,52.718c0,24.45-5.531,43.085-16.596,55.901
			c-11.064,12.82-25.315,19.228-42.744,19.228c-11.109,0-20.337-2.76-27.686-8.275c-4.014-3.058-7.944-7.516-11.788-13.371v72.328
			h-35.91V52.484h34.762v20.502c3.929-6.027,8.117-10.78,12.56-14.263c8.116-6.194,17.771-9.297,28.963-9.297
			C541.246,49.426,555.063,55.413,566.383,67.383z M538.53,93.487c-4.93-8.233-12.926-12.353-23.991-12.353
			c-13.294,0-22.427,6.241-27.401,18.719c-2.572,6.623-3.858,15.027-3.858,25.214c0,16.131,4.327,27.462,12.982,34.001
			c5.145,3.82,11.234,5.729,18.27,5.729c10.208,0,17.993-3.904,23.356-11.716c5.359-7.808,8.041-18.208,8.041-31.196
			C545.928,111.187,543.46,101.724,538.53,93.487z"/>
		<path class="st0" d="M692.243,55.293c9.681,4.34,17.677,11.184,23.983,20.537c5.688,8.246,9.373,17.811,11.06,28.694
			c0.977,6.376,1.374,15.559,1.196,27.547H627.391c0.564,13.923,5.4,23.683,14.514,29.287c5.544,3.483,12.214,5.223,20.009,5.223
			c8.271,0,14.987-2.123,20.155-6.367c2.815-2.295,5.306-5.476,7.466-9.551h37.054c-0.977,8.235-5.46,16.597-13.454,25.084
			c-12.433,13.501-29.841,20.249-52.221,20.249c-18.473,0-34.769-5.693-48.889-17.079c-14.122-11.383-21.184-29.907-21.184-55.57
			c0-24.043,6.377-42.481,19.124-55.311c12.746-12.829,29.292-19.245,49.635-19.245C671.681,48.791,682.56,50.961,692.243,55.293z
			 M637.952,86.645c-5.131,5.29-8.351,12.449-9.67,21.485h62.525c-0.664-9.633-3.883-16.944-9.667-21.931
			c-5.79-4.989-12.963-7.485-21.526-7.485C650.299,78.714,643.078,81.359,637.952,86.645z"/>
		<path class="st0" d="M775.203,191.282h-36.289V3.585h36.289V191.282z"/>
	</g>
</g>
<g>
	<path class="st0" d="M517.385,213.766h8.274l-10.643,28.995h-8.126l-10.57-28.995h8.653l6.139,21.387L517.385,213.766z"/>
	<path class="st0" d="M541.701,225.125c1.434-0.177,2.46-0.399,3.078-0.665c1.108-0.461,1.662-1.179,1.662-2.154
		c0-1.188-0.425-2.009-1.275-2.461s-2.097-0.678-3.741-0.678c-1.846,0-3.152,0.443-3.92,1.33c-0.548,0.656-0.914,1.543-1.096,2.66
		h-7.436c0.163-2.536,0.887-4.62,2.172-6.251c2.046-2.554,5.558-3.831,10.538-3.831c3.24,0,6.119,0.63,8.636,1.889
		c2.517,1.26,3.775,3.636,3.775,7.129v13.301c0,0.922,0.018,2.039,0.054,3.352c0.054,0.993,0.207,1.667,0.459,2.021
		c0.252,0.355,0.631,0.647,1.136,0.878v1.117h-8.383c-0.234-0.585-0.396-1.135-0.486-1.649c-0.091-0.514-0.163-1.1-0.216-1.756
		c-1.07,1.136-2.303,2.102-3.699,2.899c-1.668,0.94-3.554,1.41-5.657,1.41c-2.684,0-4.9-0.749-6.65-2.248
		c-1.75-1.498-2.625-3.621-2.625-6.37c0-3.565,1.408-6.146,4.222-7.741c1.544-0.868,3.814-1.49,6.811-1.862L541.701,225.125z
		 M546.413,228.663c-0.493,0.302-0.992,0.545-1.494,0.731c-0.503,0.187-1.192,0.359-2.07,0.519l-1.754,0.319
		c-1.645,0.284-2.826,0.63-3.542,1.038c-1.214,0.691-1.821,1.765-1.821,3.218c0,1.295,0.371,2.23,1.112,2.807
		c0.741,0.577,1.643,0.865,2.705,0.865c1.684,0,3.235-0.479,4.654-1.437c1.419-0.958,2.155-2.704,2.21-5.241V228.663z"/>
	<path class="st0" d="M584.593,215.429c1.93,1.569,2.895,4.172,2.895,7.807v19.525h-7.896v-17.637c0-1.525-0.206-2.695-0.618-3.511
		c-0.752-1.49-2.184-2.234-4.294-2.234c-2.595,0-4.375,1.091-5.342,3.272c-0.501,1.153-0.752,2.625-0.752,4.416v15.694h-7.707
		v-28.942h7.463v4.229c0.987-1.49,1.92-2.563,2.8-3.219c1.579-1.17,3.581-1.756,6.005-1.756
		C580.182,213.074,582.663,213.859,584.593,215.429z"/>
	<path class="st0" d="M612.284,224.167c-0.145-1.082-0.515-2.057-1.111-2.926c-0.868-1.17-2.214-1.755-4.039-1.755
		c-2.603,0-4.382,1.268-5.34,3.804c-0.506,1.345-0.759,3.131-0.759,5.36c0,2.123,0.252,3.83,0.759,5.121
		c0.921,2.412,2.656,3.618,5.205,3.618c1.807,0,3.09-0.479,3.849-1.437c0.759-0.958,1.22-2.199,1.382-3.725h7.869
		c-0.181,2.306-1.029,4.487-2.544,6.544c-2.418,3.316-6,4.975-10.746,4.975c-4.746,0-8.238-1.384-10.475-4.15
		c-2.238-2.766-3.356-6.354-3.356-10.761c0-4.973,1.236-8.844,3.708-11.61s5.882-4.15,10.232-4.15c3.699,0,6.726,0.816,9.081,2.447
		c2.354,1.632,3.748,4.514,4.182,8.646H612.284z"/>
	<path class="st0" d="M650.033,239.214c-2.488,3.021-6.265,4.531-11.33,4.531c-5.066,0-8.842-1.511-11.33-4.531
		c-2.488-3.021-3.731-6.658-3.731-10.911c0-4.181,1.244-7.805,3.731-10.87s6.264-4.598,11.33-4.598c5.065,0,8.842,1.533,11.33,4.598
		s3.731,6.689,3.731,10.87C653.764,232.556,652.521,236.193,650.033,239.214z M643.868,235.024c1.208-1.576,1.812-3.815,1.812-6.721
		c0-2.904-0.604-5.14-1.812-6.707c-1.208-1.567-2.939-2.351-5.192-2.351c-2.254,0-3.989,0.784-5.206,2.351s-1.825,3.803-1.825,6.707
		c0,2.905,0.608,5.145,1.825,6.721s2.952,2.364,5.206,2.364C640.929,237.388,642.66,236.6,643.868,235.024z"/>
	<path class="st0" d="M666.96,213.766v17.477c0,1.649,0.197,2.891,0.592,3.725c0.7,1.472,2.072,2.208,4.117,2.208
		c2.619,0,4.413-1.047,5.381-3.14c0.502-1.135,0.753-2.633,0.753-4.495v-15.774h7.815v28.995h-7.49v-4.097
		c-0.072,0.089-0.252,0.355-0.539,0.798c-0.288,0.443-0.629,0.834-1.025,1.171c-1.205,1.063-2.369,1.791-3.492,2.181
		c-1.124,0.391-2.44,0.586-3.95,0.586c-4.35,0-7.28-1.543-8.791-4.629c-0.845-1.702-1.267-4.212-1.267-7.528v-17.477H666.96z"/>
	<path class="st0" d="M711.266,213.766h8.274l-10.643,28.995h-8.126l-10.57-28.995h8.653l6.139,21.387L711.266,213.766z"/>
	<path class="st0" d="M743.114,214.354c2.056,0.906,3.754,2.336,5.093,4.289c1.207,1.723,1.99,3.721,2.349,5.995
		c0.208,1.332,0.292,3.25,0.254,5.755h-21.467c0.119,2.908,1.147,4.947,3.082,6.118c1.177,0.728,2.593,1.091,4.249,1.091
		c1.756,0,3.182-0.443,4.279-1.33c0.598-0.479,1.127-1.145,1.586-1.995h7.868c-0.208,1.72-1.16,3.467-2.857,5.24
		c-2.64,2.819-6.336,4.229-11.089,4.229c-3.922,0-7.383-1.189-10.382-3.567c-2.999-2.379-4.498-6.248-4.498-11.608
		c0-5.023,1.353-8.875,4.06-11.555c2.707-2.68,6.22-4.021,10.54-4.021C738.747,212.995,741.058,213.448,743.114,214.354z
		 M731.585,220.903c-1.089,1.104-1.773,2.6-2.053,4.488h13.277c-0.14-2.013-0.824-3.54-2.053-4.582s-2.752-1.563-4.571-1.563
		C734.207,219.246,732.674,219.798,731.585,220.903z"/>
	<path class="st0" d="M771.08,213.088c0.099,0.009,0.32,0.022,0.663,0.04v7.768c-0.487-0.053-0.919-0.088-1.298-0.106
		c-0.378-0.017-0.685-0.026-0.919-0.026c-3.101,0-5.183,0.993-6.246,2.979c-0.595,1.118-0.893,2.837-0.893,5.161v13.859h-7.761
		v-28.995h7.355v5.054c1.19-1.933,2.227-3.254,3.11-3.964c1.442-1.188,3.317-1.782,5.625-1.782
		C770.859,213.074,770.98,213.079,771.08,213.088z"/>
</g>
<g>
	<path class="st0" d="M835.027,141.978c-0.039-15.255-0.102-34.045-0.102-34.941c0.775-0.328,15.025-6.337,28.25-11.922
		l-0.068-22.015l-37.898,15.995c-6.92,2.918-11.934,10.166-11.912,17.226l0.1,35.628c0.012,0.029,0.027,0.055,0.041,0.083h-13.827
		v47.354h48.946v-47.354h-13.545C835.016,142.014,835.023,141.997,835.027,141.978z"/>
	<path class="st0" d="M892.529,141.904c0.01-0.028,0.023-0.055,0.033-0.084l-0.033-11.674V63.131l33.912,13.648L881.098,0
		l-46.342,77.733l35.955-14.619v78.918h-13.238v47.354h48.947v-47.354h-13.891V141.904z M892.334,63.053l0.152,0.062h-0.152V63.053z
		"/>
	<path class="st0" d="M950.016,142.032v-0.218c0.027-0.049,0.053-0.098,0.082-0.15l-0.082-26.853v-8.01h-0.023l-0.002-0.852
		c-0.021-7.064-5.086-14.283-12.037-17.161L899.99,73.092l0.064,21.998c13.281,5.491,27.521,11.379,28.314,11.712v35.23h-13.221
		v47.354h48.945v-47.354H950.016z"/>
</g>
</svg>
