<?xml version="1.0" encoding="utf-8"?>
<!DOCTYPE svg PUBLIC "-//W3C//DTD SVG 1.1//EN" "http://www.w3.org/Graphics/SVG/1.1/DTD/svg11.dtd">
<svg version="1.1" id="BLACK" xmlns="http://www.w3.org/2000/svg" xmlns:xlink="http://www.w3.org/1999/xlink" x="0px" y="0px"
	 width="964.094px" height="246.654px" viewBox="0 0 964.094 246.654" style="fill: #fff; fill-opacity: 0.6;"
	 xml:space="preserve">
<g>
	<g>
		<path class="st0" d="M26.078,23.195C41.196,7.746,60.428,0.021,83.778,0.021c31.242,0,54.083,10.358,68.531,31.069
			c7.978,11.631,12.261,23.306,12.849,35.021h-39.22c-2.495-9-5.698-15.79-9.607-20.376c-6.983-8.15-17.339-12.225-31.061-12.225
			c-13.972,0-24.994,5.751-33.061,17.256c-8.066,11.503-12.097,27.78-12.097,48.832c0,21.055,4.256,36.824,12.766,47.307
			c8.512,10.486,19.327,15.728,32.448,15.728c13.452,0,23.709-4.5,30.767-13.499c3.904-4.838,7.142-12.097,9.718-21.773h38.964
			c-3.359,20.458-11.946,37.097-25.763,49.916c-13.815,12.82-31.513,19.226-53.097,19.226c-26.707,0-47.705-8.657-62.987-25.976
			C7.642,153.125,0,129.269,0,98.963C0,66.195,8.693,40.941,26.078,23.195z"/>
		<path class="st0" d="M274.191,53.251c6.971,2.975,12.701,7.522,17.179,13.638c3.801,5.185,6.125,10.516,6.971,15.995
			c0.846,5.482,1.271,14.424,1.271,26.828v81.569h-37.056v-84.52c0-7.479-1.264-13.513-3.793-18.101
			c-3.285-6.459-9.521-9.691-18.707-9.691c-9.521,0-16.749,3.208-21.679,9.625c-4.929,6.417-7.393,15.573-7.393,27.471v75.215
			h-36.293V4.224h36.293V70.44c5.241-8.067,11.305-13.692,18.194-16.874c6.889-3.185,14.137-4.775,21.744-4.775
			C259.46,48.791,267.216,50.278,274.191,53.251z"/>
		<path class="st0" d="M374.154,106.857c6.756-0.849,11.587-1.912,14.496-3.185c5.218-2.206,7.827-5.642,7.827-10.314
			c0-5.686-2.003-9.614-6.004-11.777c-4.002-2.166-9.875-3.247-17.619-3.247c-8.689,0-14.846,2.123-18.458,6.366
			c-2.583,3.141-4.304,7.385-5.164,12.733h-35.017c0.765-12.139,4.176-22.112,10.23-29.924
			c9.635-12.224,26.176-18.336,49.623-18.336c15.261,0,28.817,3.012,40.667,9.041c11.852,6.029,17.776,17.401,17.776,34.126v63.669
			c0,4.413,0.086,9.764,0.255,16.047c0.256,4.753,0.977,7.98,2.167,9.675c1.187,1.7,2.968,3.103,5.348,4.202v5.348h-39.478
			c-1.104-2.802-1.867-5.432-2.292-7.895c-0.424-2.46-0.762-5.262-1.017-8.403c-5.04,5.432-10.845,10.059-17.419,13.879
			c-7.856,4.5-16.736,6.748-26.644,6.748c-12.638,0-23.076-3.588-31.315-10.759c-8.239-7.174-12.358-17.337-12.358-30.499
			c0-17.063,6.626-29.415,19.882-37.055c7.271-4.159,17.963-7.129,32.072-8.913L374.154,106.857z M396.346,123.792
			c-2.324,1.445-4.669,2.613-7.034,3.503c-2.369,0.889-5.616,1.718-9.747,2.483l-8.26,1.529c-7.744,1.357-13.305,3.012-16.683,4.966
			c-5.716,3.309-8.572,8.446-8.572,15.406c0,6.2,1.746,10.676,5.236,13.436c3.49,2.758,7.735,4.139,12.736,4.139
			c7.93,0,15.235-2.293,21.915-6.878c6.682-4.581,10.151-12.942,10.409-25.085V123.792z"/>
		<path class="st0" d="M566.383,67.383c11.323,11.969,16.982,29.543,16.982,52.718c0,24.45-5.531,43.085-16.596,55.901
			c-11.064,12.82-25.315,19.228-42.744,19.228c-11.109,0-20.337-2.76-27.686-8.275c-4.014-3.058-7.944-7.516-11.788-13.371v72.328
			h-35.91V52.484h34.762v20.502c3.929-6.027,8.117-10.78,12.56-14.263c8.116-6.194,17.771-9.297,28.963-9.297
			C541.246,49.426,555.063,55.413,566.383,67.383z M538.53,93.487c-4.93-8.233-12.926-12.353-23.991-12.353
			c-13.294,0-22.427,6.241-27.401,18.719c-2.572,6.623-3.858,15.027-3.858,25.214c0,16.131,4.327,27.462,12.982,34.001
			c5.145,3.82,11.234,5.729,18.27,5.729c10.208,0,17.993-3.904,23.356-11.716c5.359-7.808,8.041-18.208,8.041-31.196
			C545.928,111.187,543.46,101.724,538.53,93.487z"/>
		<path class="st0" d="M692.243,55.293c9.681,4.34,17.677,11.184,23.983,20.537c5.688,8.246,9.373,17.811,11.06,28.694
			c0.977,6.376,1.374,15.559,1.196,27.547H627.391c0.564,13.923,5.4,23.683,14.514,29.287c5.544,3.483,12.214,5.223,20.009,5.223
			c8.271,0,14.987-2.123,20.155-6.367c2.815-2.295,5.306-5.476,7.466-9.551h37.054c-0.977,8.235-5.46,16.597-13.454,25.084
			c-12.433,13.501-29.841,20.249-52.221,20.249c-18.473,0-34.769-5.693-48.889-17.079c-14.122-11.383-21.184-29.907-21.184-55.57
			c0-24.043,6.377-42.481,19.124-55.311c12.746-12.829,29.292-19.245,49.635-19.245C671.681,48.791,682.56,50.961,692.243,55.293z
			 M637.952,86.645c-5.131,5.29-8.351,12.449-9.67,21.485h62.525c-0.664-9.633-3.883-16.944-9.667-21.931
			c-5.79-4.989-12.963-7.485-21.526-7.485C650.299,78.714,643.078,81.359,637.952,86.645z"/>
		<path class="st0" d="M775.203,191.282h-36.289V3.585h36.289V191.282z"/>
	</g>
</g>
<g>
	<path class="st0" d="M835.027,141.978c-0.039-15.255-0.102-34.045-0.102-34.941c0.775-0.328,15.025-6.337,28.25-11.922
		l-0.068-22.015l-37.898,15.995c-6.92,2.918-11.934,10.166-11.912,17.226l0.1,35.628c0.012,0.029,0.027,0.055,0.041,0.083h-13.827
		v47.354h48.946v-47.354h-13.545C835.016,142.014,835.023,141.997,835.027,141.978z"/>
	<path class="st0" d="M892.529,141.904c0.01-0.028,0.023-0.055,0.033-0.084l-0.033-11.674V63.131l33.912,13.648L881.098,0
		l-46.342,77.733l35.955-14.619v78.918h-13.238v47.354h48.947v-47.354h-13.891V141.904z M892.334,63.053l0.152,0.062h-0.152V63.053z
		"/>
	<path class="st0" d="M950.016,142.032v-0.218c0.027-0.049,0.053-0.098,0.082-0.15l-0.082-26.853v-8.01h-0.023l-0.002-0.852
		c-0.021-7.064-5.086-14.283-12.037-17.161L899.99,73.092l0.064,21.998c13.281,5.491,27.521,11.379,28.314,11.712v35.23h-13.221
		v47.354h48.945v-47.354H950.016z"/>
</g>
<g>
	<path class="st0" d="M513.35,216.44h5.929v5.416h-5.929v14.594c0,1.368,0.229,2.28,0.685,2.736s1.368,0.684,2.736,0.684
		c0.456,0,0.893-0.019,1.311-0.057s0.817-0.095,1.197-0.171v6.271c-0.684,0.114-1.444,0.19-2.28,0.228
		c-0.836,0.038-1.653,0.057-2.451,0.057c-1.254,0-2.442-0.085-3.563-0.257c-1.121-0.171-2.109-0.503-2.964-0.998
		c-0.855-0.494-1.529-1.197-2.023-2.109s-0.741-2.109-0.741-3.592v-17.387h-4.902v-5.416h4.902v-8.836h8.095V216.44z"/>
	<path class="st0" d="M523.153,216.44h7.696v5.473h0.114c0.38-0.912,0.893-1.757,1.539-2.537c0.646-0.779,1.387-1.444,2.224-1.995
		c0.836-0.551,1.729-0.979,2.679-1.283c0.95-0.304,1.938-0.456,2.964-0.456c0.532,0,1.121,0.095,1.767,0.285v7.524
		c-0.38-0.076-0.836-0.142-1.368-0.199c-0.532-0.057-1.045-0.085-1.539-0.085c-1.482,0-2.736,0.247-3.762,0.741
		c-1.026,0.494-1.853,1.169-2.48,2.024s-1.074,1.853-1.34,2.993c-0.266,1.141-0.399,2.375-0.399,3.706v13.283h-8.095V216.44z"/>
	<path class="st0" d="M553.648,211.879h-8.095v-6.67h8.095V211.879z M545.553,216.44h8.095v29.473h-8.095V216.44z"/>
	<path class="st0" d="M559.974,226.873h17.159v6.955h-17.159V226.873z"/>
	<path class="st0" d="M603.296,226.815c-0.532-3.382-2.527-5.074-5.986-5.074c-1.292,0-2.375,0.294-3.25,0.884
		c-0.874,0.589-1.587,1.349-2.138,2.28c-0.551,0.931-0.94,1.957-1.169,3.078c-0.228,1.121-0.342,2.233-0.342,3.335
		c0,1.064,0.114,2.147,0.342,3.25c0.229,1.102,0.599,2.1,1.112,2.993s1.207,1.625,2.081,2.195c0.875,0.57,1.938,0.855,3.192,0.855
		c1.938,0,3.43-0.542,4.475-1.625c1.045-1.083,1.701-2.537,1.967-4.361h7.81c-0.532,3.914-2.052,6.897-4.561,8.95
		s-5.72,3.079-9.634,3.079c-2.204,0-4.228-0.371-6.071-1.112s-3.411-1.777-4.703-3.107c-1.292-1.33-2.299-2.917-3.021-4.76
		s-1.083-3.867-1.083-6.071c0-2.28,0.333-4.399,0.998-6.356c0.665-1.957,1.644-3.648,2.936-5.074
		c1.292-1.425,2.87-2.537,4.732-3.334c1.862-0.798,3.99-1.197,6.385-1.197c1.748,0,3.43,0.228,5.045,0.684s3.059,1.149,4.333,2.081
		c1.273,0.931,2.309,2.09,3.107,3.478c0.798,1.387,1.254,3.031,1.368,4.931H603.296z"/>
	<path class="st0" d="M624.27,211.879h-8.095v-6.67h8.095V211.879z M616.175,216.44h8.095v29.473h-8.095V216.44z"/>
	<path class="st0" d="M640.915,216.44h5.929v5.416h-5.929v14.594c0,1.368,0.228,2.28,0.684,2.736s1.368,0.684,2.736,0.684
		c0.456,0,0.894-0.019,1.312-0.057s0.817-0.095,1.197-0.171v6.271c-0.685,0.114-1.444,0.19-2.28,0.228
		c-0.836,0.038-1.653,0.057-2.452,0.057c-1.254,0-2.442-0.085-3.563-0.257c-1.121-0.171-2.109-0.503-2.964-0.998
		c-0.855-0.494-1.529-1.197-2.023-2.109s-0.741-2.109-0.741-3.592v-17.387h-4.903v-5.416h4.903v-8.836h8.095V216.44z"/>
	<path class="st0" d="M659.039,211.879h-8.095v-6.67h8.095V211.879z M650.944,216.44h8.095v29.473h-8.095V216.44z"/>
	<path class="st0" d="M672.092,233.143c0.114,2.622,0.779,4.522,1.996,5.701c1.216,1.178,2.964,1.767,5.244,1.767
		c1.634,0,3.041-0.408,4.219-1.226c1.178-0.817,1.9-1.682,2.166-2.594h7.126c-1.14,3.534-2.888,6.062-5.245,7.582
		c-2.356,1.52-5.207,2.28-8.551,2.28c-2.318,0-4.409-0.371-6.271-1.112s-3.439-1.795-4.731-3.164s-2.29-3.002-2.993-4.903
		s-1.055-3.991-1.055-6.271c0-2.204,0.361-4.256,1.083-6.156c0.722-1.9,1.748-3.544,3.079-4.931c1.33-1.387,2.917-2.48,4.76-3.278
		c1.843-0.798,3.886-1.197,6.128-1.197c2.508,0,4.693,0.484,6.556,1.454s3.392,2.271,4.589,3.905
		c1.197,1.634,2.062,3.497,2.594,5.587c0.532,2.09,0.722,4.275,0.57,6.556H672.092z M685.26,228.012
		c-0.38-2.052-1.054-3.61-2.023-4.674s-2.442-1.596-4.418-1.596c-1.292,0-2.366,0.219-3.221,0.656
		c-0.855,0.437-1.539,0.979-2.052,1.625c-0.513,0.646-0.874,1.33-1.083,2.052s-0.333,1.368-0.371,1.938H685.26z"/>
	<path class="st0" d="M704.41,236.335c0,0.874,0.181,1.625,0.542,2.252c0.361,0.627,0.827,1.14,1.396,1.539
		c0.57,0.399,1.226,0.693,1.967,0.884c0.741,0.19,1.511,0.285,2.309,0.285c0.57,0,1.168-0.066,1.795-0.199
		c0.627-0.133,1.197-0.342,1.71-0.627c0.513-0.285,0.94-0.665,1.283-1.14c0.342-0.475,0.513-1.073,0.513-1.795
		c0-1.216-0.807-2.128-2.422-2.736c-1.615-0.608-3.867-1.216-6.755-1.824c-1.178-0.266-2.328-0.58-3.449-0.941
		c-1.121-0.361-2.119-0.836-2.993-1.425c-0.874-0.589-1.577-1.331-2.109-2.224c-0.532-0.893-0.798-1.985-0.798-3.278
		c0-1.9,0.371-3.458,1.111-4.674c0.741-1.216,1.72-2.176,2.936-2.879s2.584-1.197,4.104-1.482c1.52-0.285,3.078-0.427,4.675-0.427
		c1.596,0,3.145,0.152,4.646,0.456c1.501,0.304,2.841,0.817,4.019,1.539c1.178,0.722,2.157,1.682,2.936,2.879
		c0.779,1.197,1.245,2.708,1.396,4.532h-7.696c-0.114-1.559-0.703-2.613-1.767-3.164s-2.318-0.827-3.763-0.827
		c-0.456,0-0.95,0.028-1.482,0.085c-0.532,0.057-1.017,0.18-1.454,0.371c-0.437,0.19-0.808,0.465-1.112,0.827
		c-0.304,0.361-0.456,0.846-0.456,1.454c0,0.722,0.266,1.311,0.798,1.767c0.532,0.456,1.226,0.827,2.081,1.112
		s1.834,0.542,2.936,0.77s2.223,0.475,3.363,0.741c1.178,0.266,2.328,0.589,3.449,0.969c1.121,0.38,2.119,0.883,2.993,1.51
		c0.874,0.627,1.577,1.406,2.109,2.337c0.532,0.931,0.798,2.081,0.798,3.449c0,1.938-0.39,3.563-1.168,4.874
		c-0.779,1.311-1.796,2.366-3.05,3.164c-1.254,0.798-2.689,1.359-4.304,1.682c-1.615,0.323-3.259,0.485-4.931,0.485
		c-1.71,0-3.382-0.171-5.017-0.513s-3.088-0.912-4.361-1.71c-1.273-0.798-2.318-1.853-3.136-3.164
		c-0.817-1.311-1.264-2.955-1.339-4.931H704.41z"/>
</g>
</svg>
