<?xml version="1.0" encoding="utf-8"?>
<!DOCTYPE svg PUBLIC "-//W3C//DTD SVG 1.1//EN" "http://www.w3.org/Graphics/SVG/1.1/DTD/svg11.dtd">
<svg version="1.1" id="BLACK" xmlns="http://www.w3.org/2000/svg" xmlns:xlink="http://www.w3.org/1999/xlink" x="0px" y="0px"
	 width="164.483px" height="189.387px" viewBox="0 0 164.483 189.387" style="fill: #000; fill-opacity: 0.7;"
	 xml:space="preserve">
<g>
	<path d="M35.417,141.978c-0.039-15.255-0.102-34.045-0.102-34.941c0.775-0.328,15.025-6.337,28.25-11.922l-0.068-22.015
		L25.598,89.095c-6.92,2.918-11.934,10.166-11.912,17.226l0.1,35.628c0.012,0.029,0.027,0.055,0.041,0.083H0v47.354h48.946v-47.354
		H35.401C35.405,142.014,35.413,141.997,35.417,141.978z"/>
	<path d="M92.918,141.904c0.01-0.028,0.023-0.055,0.033-0.084l-0.033-11.674V63.131l33.912,13.648L81.487,0L35.145,77.733
		L71.1,63.114v78.918H57.862v47.354h48.947v-47.354H92.918V141.904z M92.723,63.053l0.152,0.062h-0.152V63.053z"/>
	<path d="M150.405,142.032v-0.218c0.027-0.049,0.053-0.098,0.082-0.15l-0.082-26.853v-8.01h-0.023l-0.002-0.852
		c-0.021-7.064-5.086-14.283-12.037-17.161l-37.963-15.697l0.064,21.998c13.281,5.491,27.521,11.379,28.314,11.712v35.23h-13.221
		v47.354h48.945v-47.354H150.405z"/>
</g>
</svg>
