<?xml version="1.0" encoding="utf-8"?>
<!DOCTYPE svg PUBLIC "-//W3C//DTD SVG 1.1//EN" "http://www.w3.org/Graphics/SVG/1.1/DTD/svg11.dtd">
<svg version="1.1" id="Layer_1" xmlns="http://www.w3.org/2000/svg" xmlns:xlink="http://www.w3.org/1999/xlink" x="0px" y="0px"
	 width="860.951px" height="471.13px" viewBox="0 0 860.951 471.13" style="fill: #000; fill-opacity: 0.7;"
	 xml:space="preserve">
<g>
	<path d="M18.964,12.797C27.311,4.266,37.931,0,50.823,0c17.251,0,29.864,5.72,37.842,17.156c4.405,6.423,6.77,12.867,7.095,19.336
		H74.103c-1.378-4.968-3.146-8.719-5.304-11.25c-3.857-4.5-9.575-6.75-17.151-6.75c-7.716,0-13.801,3.176-18.255,9.527
		c-4.454,6.353-6.681,15.34-6.681,26.965c0,11.626,2.35,20.333,7.05,26.121c4.7,5.79,10.672,8.684,17.917,8.684
		c7.428,0,13.091-2.484,16.989-7.453c2.155-2.672,3.943-6.68,5.365-12.023h21.516c-1.855,11.297-6.597,20.485-14.225,27.563
		c-7.629,7.079-17.401,10.617-29.319,10.617c-14.747,0-26.341-4.781-34.78-14.344c-8.44-9.608-12.66-22.781-12.66-39.516
		C4.564,36.54,9.364,22.595,18.964,12.797z"/>
	<path d="M113.348,105.609V1.969h21.516v39.516h40.289V1.969h21.516v103.641h-21.516V59.344h-40.289v46.266H113.348z"/>
	<path d="M247.549,1.969h24.504l36.668,103.641h-23.484l-6.839-21.305h-38.167l-7.026,21.305h-22.653L247.549,1.969z
		 M246.122,66.445h26.543l-13.092-40.781L246.122,66.445z"/>
	<path d="M391.915,60.75c-6.067,5.063-14.73,7.594-25.992,7.594h-21.579v37.266h-21.516V1.969h44.5
		c10.259,0,18.438,2.672,24.538,8.016s9.149,13.618,9.149,24.82C401.016,47.039,397.982,55.688,391.915,60.75z M375.386,23.414
		c-2.742-2.296-6.584-3.445-11.526-3.445h-19.516v30.516h19.516c4.942,0,8.784-1.241,11.526-3.727
		c2.742-2.484,4.114-6.421,4.114-11.813C379.5,29.556,378.128,25.711,375.386,23.414z"/>
	<path d="M495.456,20.32h-54.844v22.008h50.344v18h-50.344v26.648h57.375v18.633h-78.539V1.969h76.008V20.32z"/>
	<path d="M515.294,1.969h21.656v85.008h51.75v18.633h-73.406V1.969z"/>
	<path d="M601.015,122.273c4.031-1.125,6.996-3,8.895-5.625c1.898-2.626,2.988-6.305,3.27-11.039h-12.164V84.586h21.656v18.197
		c0,3.197-0.422,6.529-1.266,9.999c-0.844,3.468-2.415,6.469-4.711,9c-2.485,2.718-5.403,4.769-8.754,6.152
		c-3.352,1.382-5.66,2.074-6.926,2.074V122.273z"/>
	<path d="M14.312,196.609H2.957V141.91h11.355V196.609z"/>
	<path d="M24.434,141.91h11.982l21.713,38.14v-38.14h10.65v54.699H57.353l-22.268-38.811v38.811h-10.65V141.91z"/>
	<path d="M111.131,141.91h11.875l-18.648,54.699H93.56L75.061,141.91H87.27l11.875,41.525L111.131,141.91z"/>
	<path d="M139.863,196.609h-11.355V141.91h11.355V196.609z"/>
	<path d="M189.915,141.91v9.686H173.55v45.014h-11.504v-45.014h-16.439v-9.686H189.915z"/>
	<path d="M206.643,196.609h-11.355V141.91h11.355V196.609z"/>
	<path d="M216.765,141.91h11.982l21.713,38.14v-38.14h10.65v54.699h-11.427l-22.268-38.811v38.811h-10.65V141.91z"/>
	<path d="M308.23,158.98c-0.866-3.735-2.981-6.346-6.346-7.83c-1.88-0.816-3.971-1.225-6.271-1.225
		c-4.404,0-8.022,1.661-10.854,4.982c-2.833,3.321-4.249,8.315-4.249,14.981c0,6.717,1.534,11.47,4.602,14.26
		c3.067,2.79,6.556,4.185,10.465,4.185c3.834,0,6.977-1.1,9.426-3.3c2.449-2.201,3.958-5.083,4.527-8.649h-12.654v-9.129h22.785
		v29.354h-7.57l-1.15-6.828c-2.202,2.586-4.181,4.409-5.938,5.468c-3.019,1.847-6.729,2.771-11.133,2.771
		c-7.249,0-13.187-2.51-17.813-7.528c-4.824-5.043-7.236-11.941-7.236-20.694c0-8.851,2.437-15.947,7.311-21.287
		c4.874-5.34,11.318-8.01,19.334-8.01c6.952,0,12.537,1.763,16.755,5.288c4.218,3.525,6.636,7.923,7.255,13.192H308.23z"/>
	<path d="M363.784,141.91h12.933l19.353,54.699h-12.395l-3.609-11.244h-20.144l-3.708,11.244h-11.956L363.784,141.91z
		 M363.03,175.939h14.009l-6.91-21.523L363.03,175.939z"/>
	<path d="M402.461,141.91h11.982l21.713,38.14v-38.14h10.65v54.699H435.38l-22.268-38.811v38.811h-10.65V141.91z"/>
	<path d="M489.202,143.098c3.837,1.262,6.945,3.575,9.322,6.939c1.906,2.722,3.207,5.666,3.9,8.832
		c0.693,3.167,1.039,6.185,1.039,9.055c0,7.273-1.461,13.434-4.383,18.48c-3.96,6.804-10.076,10.205-18.346,10.205h-23.583V141.91
		h23.583C484.127,141.96,486.949,142.355,489.202,143.098z M468.247,151.41v35.699h10.556c5.402,0,9.168-2.659,11.299-7.979
		c1.165-2.919,1.747-6.395,1.747-10.428c0-5.566-0.874-9.84-2.62-12.821c-1.747-2.981-5.222-4.472-10.426-4.472H468.247z"/>
	<path d="M532.391,141.91h11.615v33.594c0,3.757,0.443,6.501,1.331,8.231c1.38,3.065,4.388,4.598,9.022,4.598
		c4.609,0,7.604-1.533,8.985-4.598c0.887-1.73,1.331-4.474,1.331-8.231V141.91h11.615v33.621c0,5.814-0.901,10.341-2.704,13.582
		c-3.359,5.938-9.769,8.906-19.228,8.906s-15.881-2.969-19.265-8.906c-1.803-3.241-2.704-7.768-2.704-13.582V141.91z"/>
	<path d="M586.71,141.91h11.982l21.713,38.14v-38.14h10.65v54.699h-11.428l-22.268-38.811v38.811h-10.65V141.91z"/>
	<path d="M651.829,196.609h-11.355V141.91h11.355V196.609z"/>
	<path d="M701.88,141.91v9.686h-16.365v45.014h-11.504v-45.014h-16.439v-9.686H701.88z"/>
	<path d="M718.608,196.609h-11.355V141.91h11.355V196.609z"/>
	<path d="M728.73,141.91h11.982l21.713,38.14v-38.14h10.65v54.699h-11.428l-22.268-38.811v38.811h-10.65V141.91z"/>
	<path d="M820.196,158.98c-0.866-3.735-2.981-6.346-6.346-7.83c-1.881-0.816-3.971-1.225-6.271-1.225
		c-4.404,0-8.022,1.661-10.854,4.982c-2.833,3.321-4.249,8.315-4.249,14.981c0,6.717,1.533,11.47,4.602,14.26
		c3.067,2.79,6.556,4.185,10.465,4.185c3.834,0,6.977-1.1,9.426-3.3c2.449-2.201,3.958-5.083,4.527-8.649H808.84v-9.129h22.785
		v29.354h-7.57l-1.15-6.828c-2.202,2.586-4.182,4.409-5.938,5.468c-3.019,1.847-6.729,2.771-11.133,2.771
		c-7.249,0-13.187-2.51-17.813-7.528c-4.824-5.043-7.236-11.941-7.236-20.694c0-8.851,2.437-15.947,7.311-21.287
		c4.873-5.34,11.318-8.01,19.334-8.01c6.951,0,12.536,1.763,16.755,5.288c4.218,3.525,6.636,7.923,7.255,13.192H820.196z"/>
	<path d="M19.526,232.91h12.933l19.353,54.699H39.417l-3.609-11.244H15.664l-3.708,11.244H0L19.526,232.91z M18.772,266.939h14.009
		l-6.91-21.523L18.772,266.939z"/>
	<path d="M113.117,249.98c-0.866-3.735-2.981-6.346-6.346-7.83c-1.88-0.816-3.971-1.225-6.271-1.225
		c-4.404,0-8.022,1.661-10.854,4.982c-2.833,3.321-4.249,8.314-4.249,14.98c0,6.717,1.534,11.47,4.602,14.261
		c3.067,2.79,6.556,4.185,10.465,4.185c3.834,0,6.977-1.1,9.426-3.3c2.449-2.201,3.958-5.084,4.527-8.649h-12.654v-9.129h22.785
		v29.354h-7.57l-1.15-6.828c-2.202,2.586-4.181,4.409-5.938,5.468c-3.019,1.847-6.729,2.771-11.133,2.771
		c-7.249,0-13.187-2.51-17.813-7.528c-4.824-5.043-7.236-11.941-7.236-20.693c0-8.851,2.437-15.947,7.311-21.287
		c4.874-5.341,11.318-8.011,19.334-8.011c6.952,0,12.537,1.763,16.755,5.288c4.218,3.525,6.636,7.923,7.255,13.192H113.117z"/>
	<path d="M175.525,242.595H146.58v11.615h26.57v9.5h-26.57v14.064h30.281v9.834H135.41V232.91h40.115V242.595z"/>
	<path d="M185.202,232.91h11.982l21.713,38.141V232.91h10.65v54.699h-11.427l-22.268-38.811v38.811h-10.65V232.91z"/>
	<path d="M280.342,242.595h-28.945v11.615h26.57v9.5h-26.57v14.064h30.281v9.834h-41.451V232.91h40.115V242.595z"/>
	<path d="M325.257,234.32c2.014,0.866,3.721,2.141,5.121,3.822c1.158,1.386,2.075,2.92,2.75,4.602
		c0.676,1.683,1.014,3.6,1.014,5.752c0,2.598-0.656,5.152-1.967,7.663c-1.312,2.512-3.476,4.286-6.494,5.325
		c2.523,1.015,4.311,2.456,5.362,4.323c1.051,1.868,1.577,4.72,1.577,8.554v3.674c0,2.499,0.1,4.193,0.302,5.084
		c0.301,1.41,1.004,2.449,2.11,3.117v1.373h-12.617c-0.347-1.212-0.594-2.189-0.742-2.932c-0.297-1.533-0.458-3.104-0.482-4.713
		l-0.074-5.084c-0.047-3.488-0.649-5.813-1.808-6.977c-1.158-1.162-3.329-1.744-6.511-1.744h-11.163v21.449h-11.17V232.91h26.163
		C320.366,232.984,323.243,233.455,325.257,234.32z M301.634,242.41v14.695h12.301c2.443,0,4.275-0.297,5.498-0.891
		c2.161-1.039,3.242-3.092,3.242-6.16c0-3.314-1.046-5.541-3.137-6.68c-1.175-0.643-2.937-0.965-5.287-0.965H301.634z"/>
	<path d="M360.35,232.91h12.933l19.353,54.699h-12.395l-3.609-11.244h-20.144l-3.708,11.244h-11.956L360.35,232.91z
		 M359.597,266.939h14.009l-6.91-21.523L359.597,266.939z"/>
	<path d="M433.354,232.91v9.686h-16.365v45.014h-11.504v-45.014h-16.439v-9.686H433.354z"/>
	<path d="M450.082,287.609h-11.355V232.91h11.355V287.609z"/>
	<path d="M502.508,282.748c-4.132,4.256-10.106,6.383-17.924,6.383c-7.818,0-13.792-2.127-17.924-6.383
		c-5.542-5.22-8.313-12.74-8.313-22.563c0-10.02,2.771-17.54,8.313-22.563c4.131-4.255,10.106-6.383,17.924-6.383
		c7.817,0,13.792,2.128,17.924,6.383c5.517,5.022,8.275,12.543,8.275,22.563C510.784,270.007,508.025,277.528,502.508,282.748z
		 M495.365,274.435c2.659-3.34,3.989-8.09,3.989-14.25c0-6.135-1.33-10.879-3.989-14.231c-2.66-3.352-6.253-5.028-10.78-5.028
		s-8.14,1.67-10.836,5.01c-2.697,3.34-4.045,8.09-4.045,14.25s1.348,10.91,4.045,14.25c2.696,3.34,6.309,5.01,10.836,5.01
		S492.705,277.775,495.365,274.435z"/>
	<path d="M518.939,232.91h11.982l21.713,38.141V232.91h10.65v54.699h-11.428l-22.268-38.811v38.811h-10.65V232.91z"/>
	<path d="M634.108,232.91v9.686h-16.365v45.014h-11.504v-45.014h-16.439v-9.686H634.108z"/>
	<path d="M681.191,282.748c-4.132,4.256-10.106,6.383-17.924,6.383c-7.818,0-13.793-2.127-17.924-6.383
		c-5.542-5.22-8.313-12.74-8.313-22.563c0-10.02,2.771-17.54,8.313-22.563c4.131-4.255,10.105-6.383,17.924-6.383
		c7.817,0,13.792,2.128,17.924,6.383c5.517,5.022,8.275,12.543,8.275,22.563C689.466,270.007,686.708,277.528,681.191,282.748z
		 M674.047,274.435c2.659-3.34,3.989-8.09,3.989-14.25c0-6.135-1.33-10.879-3.989-14.231c-2.66-3.352-6.253-5.028-10.78-5.028
		s-8.14,1.67-10.836,5.01c-2.697,3.34-4.045,8.09-4.045,14.25s1.348,10.91,4.045,14.25c2.696,3.34,6.309,5.01,10.836,5.01
		S671.387,277.775,674.047,274.435z"/>
	<path d="M726.781,270.724c0.354,2.499,1.049,4.367,2.084,5.604c1.895,2.252,5.141,3.377,9.737,3.377
		c2.753,0,4.989-0.297,6.707-0.891c3.259-1.138,4.888-3.253,4.888-6.346c0-1.806-0.799-3.203-2.395-4.193
		c-1.597-0.965-4.128-1.818-7.595-2.561l-5.921-1.299c-5.821-1.286-9.819-2.684-11.996-4.193c-3.687-2.523-5.529-6.469-5.529-11.838
		c0-4.898,1.803-8.968,5.409-12.209c3.606-3.24,8.903-4.861,15.891-4.861c5.835,0,10.813,1.528,14.933,4.583
		c4.12,3.056,6.28,7.49,6.48,13.304H748.49c-0.203-3.29-1.674-5.628-4.413-7.014c-1.826-0.915-4.096-1.373-6.81-1.373
		c-3.019,0-5.428,0.594-7.229,1.781s-2.701,2.846-2.701,4.973c0,1.955,0.888,3.414,2.663,4.379c1.142,0.644,3.563,1.398,7.268,2.264
		l9.599,2.264c4.207,0.99,7.36,2.313,9.461,3.971c3.26,2.573,4.891,6.297,4.891,11.17c0,4.998-1.932,9.147-5.796,12.45
		c-3.863,3.303-9.32,4.954-16.372,4.954c-7.201,0-12.865-1.626-16.991-4.88c-4.126-3.253-6.188-7.725-6.188-13.415H726.781z"/>
	<path d="M809.303,242.595h-28.945v11.615h26.57v9.5h-26.57v14.064h30.281v9.834h-41.451V232.91h40.115V242.595z"/>
	<path d="M859.615,242.595h-28.945v11.615h26.57v9.5h-26.57v14.064h30.281v9.834H819.5V232.91h40.115V242.595z"/>
	<path d="M40.66,340.98c-0.866-3.735-2.981-6.346-6.346-7.83c-1.88-0.816-3.971-1.225-6.271-1.225c-4.404,0-8.022,1.66-10.854,4.982
		c-2.833,3.32-4.249,8.314-4.249,14.98c0,6.717,1.534,11.47,4.602,14.26c3.067,2.79,6.556,4.186,10.465,4.186
		c3.834,0,6.977-1.1,9.426-3.301c2.449-2.2,3.958-5.083,4.527-8.648H29.304v-9.129h22.785v29.354h-7.57l-1.15-6.828
		c-2.202,2.586-4.181,4.409-5.938,5.468c-3.019,1.847-6.729,2.771-11.133,2.771c-7.249,0-13.187-2.51-17.813-7.528
		c-4.824-5.044-7.236-11.941-7.236-20.694c0-8.851,2.437-15.946,7.311-21.286c4.874-5.341,11.318-8.011,19.334-8.011
		c6.952,0,12.537,1.763,16.755,5.288c4.218,3.525,6.636,7.923,7.255,13.192H40.66z"/>
	<path d="M104.739,373.748c-4.132,4.256-10.106,6.383-17.924,6.383c-7.818,0-13.792-2.127-17.924-6.383
		c-5.542-5.22-8.313-12.74-8.313-22.563c0-10.02,2.771-17.54,8.313-22.563c4.131-4.255,10.106-6.383,17.924-6.383
		c7.817,0,13.792,2.128,17.924,6.383c5.517,5.022,8.275,12.543,8.275,22.563C113.014,361.007,110.255,368.528,104.739,373.748z
		 M97.595,365.435c2.659-3.34,3.989-8.09,3.989-14.25c0-6.135-1.33-10.879-3.989-14.231c-2.66-3.352-6.253-5.028-10.78-5.028
		s-8.14,1.67-10.836,5.01c-2.697,3.34-4.045,8.09-4.045,14.25s1.348,10.91,4.045,14.25c2.696,3.34,6.309,5.01,10.836,5.01
		S94.936,368.775,97.595,365.435z"/>
	<path d="M153.406,325.097c3.837,1.262,6.945,3.575,9.322,6.939c1.906,2.722,3.206,5.666,3.899,8.832
		c0.693,3.167,1.04,6.186,1.04,9.055c0,7.273-1.461,13.434-4.382,18.48c-3.961,6.804-10.077,10.205-18.347,10.205h-23.583V323.91
		h23.583C148.331,323.959,151.153,324.355,153.406,325.097z M132.451,333.41v35.699h10.556c5.402,0,9.168-2.659,11.299-7.979
		c1.165-2.919,1.747-6.395,1.747-10.428c0-5.566-0.874-9.84-2.62-12.821c-1.747-2.98-5.222-4.472-10.426-4.472H132.451z"/>
	<path d="M232.881,323.91h16.446v54.699h-10.65v-36.998c0-1.063,0.012-2.554,0.037-4.472c0.024-1.917,0.037-3.396,0.037-4.435
		l-10.366,45.904h-11.108l-10.292-45.904c0,1.039,0.012,2.518,0.037,4.435c0.024,1.918,0.037,3.408,0.037,4.472v36.998h-10.65
		V323.91h16.632l9.957,43.01L232.881,323.91z"/>
	<path d="M301.643,373.748c-4.132,4.256-10.106,6.383-17.924,6.383c-7.818,0-13.792-2.127-17.924-6.383
		c-5.542-5.22-8.313-12.74-8.313-22.563c0-10.02,2.771-17.54,8.313-22.563c4.131-4.255,10.106-6.383,17.924-6.383
		c7.817,0,13.792,2.128,17.924,6.383c5.517,5.022,8.275,12.543,8.275,22.563C309.918,361.007,307.159,368.528,301.643,373.748z
		 M294.499,365.435c2.659-3.34,3.989-8.09,3.989-14.25c0-6.135-1.33-10.879-3.989-14.231c-2.66-3.352-6.253-5.028-10.78-5.028
		s-8.14,1.67-10.836,5.01c-2.697,3.34-4.045,8.09-4.045,14.25s1.348,10.91,4.045,14.25c2.696,3.34,6.309,5.01,10.836,5.01
		S291.839,368.775,294.499,365.435z"/>
	<path d="M350.266,323.91h11.875l-18.648,54.699h-10.798l-18.499-54.699h12.209l11.875,41.525L350.266,323.91z"/>
	<path d="M409.019,333.595h-28.945v11.615h26.57v9.5h-26.57v14.064h30.281v9.834h-41.451V323.91h40.115V333.595z"/>
	<path d="M450.044,378.609h-11.355V323.91h11.355V378.609z"/>
	<path d="M460.167,323.91h11.982l21.713,38.141V323.91h10.65v54.699h-11.427l-22.268-38.812v38.812h-10.65V323.91z"/>
	<path d="M577.711,373.748c-4.132,4.256-10.106,6.383-17.924,6.383c-7.818,0-13.793-2.127-17.924-6.383
		c-5.542-5.22-8.313-12.74-8.313-22.563c0-10.02,2.771-17.54,8.313-22.563c4.131-4.255,10.105-6.383,17.924-6.383
		c7.817,0,13.792,2.128,17.924,6.383c5.517,5.022,8.275,12.543,8.275,22.563C585.987,361.007,583.228,368.528,577.711,373.748z
		 M570.568,365.435c2.659-3.34,3.989-8.09,3.989-14.25c0-6.135-1.33-10.879-3.989-14.231c-2.66-3.352-6.253-5.028-10.78-5.028
		s-8.14,1.67-10.836,5.01c-2.697,3.34-4.045,8.09-4.045,14.25s1.348,10.91,4.045,14.25c2.696,3.34,6.309,5.01,10.836,5.01
		S567.908,368.775,570.568,365.435z"/>
	<path d="M594.327,323.91h11.615v33.595c0,3.757,0.443,6.501,1.331,8.231c1.38,3.065,4.388,4.598,9.022,4.598
		c4.609,0,7.604-1.532,8.985-4.598c0.887-1.73,1.331-4.475,1.331-8.231V323.91h11.615v33.621c0,5.814-0.901,10.342-2.704,13.582
		c-3.359,5.938-9.769,8.906-19.228,8.906s-15.881-2.969-19.265-8.906c-1.803-3.24-2.704-7.768-2.704-13.582V323.91z"/>
	<path d="M683.885,325.32c2.014,0.866,3.721,2.141,5.12,3.822c1.158,1.386,2.074,2.92,2.75,4.602c0.676,1.683,1.014,3.6,1.014,5.752
		c0,2.598-0.656,5.152-1.967,7.663c-1.312,2.512-3.477,4.286-6.494,5.325c2.523,1.015,4.311,2.456,5.362,4.323
		c1.051,1.868,1.577,4.72,1.577,8.554v3.674c0,2.499,0.101,4.193,0.302,5.084c0.302,1.41,1.005,2.449,2.11,3.117v1.373h-12.617
		c-0.347-1.212-0.594-2.189-0.742-2.932c-0.297-1.533-0.458-3.104-0.482-4.713l-0.074-5.084c-0.047-3.488-0.649-5.813-1.808-6.977
		c-1.159-1.162-3.33-1.744-6.512-1.744h-11.163v21.449h-11.17V323.91h26.163C678.994,323.984,681.871,324.455,683.885,325.32z
		 M660.261,333.41v14.695h12.301c2.443,0,4.275-0.297,5.498-0.891c2.161-1.039,3.242-3.092,3.242-6.16
		c0-3.314-1.046-5.541-3.137-6.68c-1.175-0.643-2.938-0.965-5.286-0.965H660.261z"/>
	<path d="M9.109,420.625c4.405-4.502,10.01-6.754,16.814-6.754c9.104,0,15.762,3.019,19.972,9.055
		c2.325,3.39,3.573,6.791,3.745,10.205H38.21c-0.727-2.622-1.661-4.602-2.799-5.938c-2.036-2.375-5.053-3.563-9.052-3.563
		c-4.072,0-7.284,1.677-9.635,5.028c-2.351,3.353-3.526,8.097-3.526,14.231c0,6.136,1.24,10.731,3.721,13.786
		c2.48,3.056,5.633,4.583,9.456,4.583c3.92,0,6.909-1.311,8.966-3.934c1.137-1.41,2.081-3.525,2.832-6.346h11.355
		c-0.979,5.963-3.482,10.812-7.508,14.547c-4.026,3.736-9.184,5.604-15.474,5.604c-7.783,0-13.902-2.523-18.356-7.57
		c-4.455-5.071-6.682-12.023-6.682-20.855C1.509,433.156,4.042,425.795,9.109,420.625z"/>
	<path d="M68.817,469.609H57.461V414.91h11.355V469.609z"/>
	<path d="M118.869,414.91v9.686h-16.365v45.014H91v-45.014H74.56v-9.686H118.869z"/>
	<path d="M156.377,414.91h12.951l-18.295,34.189v20.51h-11.43v-20.51l-18.926-34.189h13.471l11.355,23.824L156.377,414.91z"/>
	<path d="M166.017,458.513h11.244v11.096h-11.244V458.513z"/>
</g>
</svg>
