<?xml version="1.0" encoding="utf-8"?>
<!DOCTYPE svg PUBLIC "-//W3C//DTD SVG 1.1//EN" "http://www.w3.org/Graphics/SVG/1.1/DTD/svg11.dtd">
<svg version="1.1" xmlns="http://www.w3.org/2000/svg" xmlns:xlink="http://www.w3.org/1999/xlink" x="0px" y="0px"
	 width="445.214px" height="89px" viewBox="0 0 445.214 89" style="fill: #fff; fill-opacity: 0.6;" xml:space="preserve">
<g>
	<path class="st0" d="M8.5,13.667c4.927-5.035,11.195-7.554,18.806-7.554c10.183,0,17.628,3.376,22.337,10.127
		c2.601,3.791,3.996,7.595,4.188,11.413H41.047c-0.813-2.932-1.857-5.146-3.131-6.641c-2.277-2.656-5.652-3.984-10.124-3.984
		c-4.554,0-8.146,1.875-10.775,5.624c-2.629,3.75-3.943,9.056-3.943,15.917c0,6.862,1.387,12.002,4.162,15.419
		c2.774,3.417,6.299,5.126,10.576,5.126c4.384,0,7.728-1.467,10.028-4.4c1.271-1.576,2.327-3.942,3.167-7.097h12.7
		c-1.095,6.669-3.894,12.092-8.397,16.27c-4.503,4.179-10.271,6.267-17.306,6.267c-8.705,0-15.548-2.822-20.53-8.467
		C2.491,56.016,0,48.239,0,38.362C0,27.682,2.833,19.45,8.5,13.667z"/>
	<path class="st0" d="M117.947,63.015c-4.621,4.76-11.303,7.139-20.046,7.139c-8.744,0-15.426-2.379-20.046-7.139
		c-6.198-5.837-9.297-14.249-9.297-25.234c0-11.205,3.099-19.616,9.297-25.234c4.621-4.758,11.303-7.139,20.046-7.139
		c8.743,0,15.425,2.381,20.046,7.139c6.17,5.618,9.255,14.029,9.255,25.234C127.203,48.766,124.117,57.178,117.947,63.015z
		 M109.958,53.718c2.974-3.734,4.462-9.047,4.462-15.938c0-6.861-1.488-12.167-4.462-15.916c-2.975-3.749-6.993-5.624-12.057-5.624
		s-9.104,1.868-12.119,5.603c-3.016,3.736-4.524,9.049-4.524,15.938c0,6.891,1.508,12.203,4.524,15.938
		c3.016,3.736,7.056,5.604,12.119,5.604S106.983,57.454,109.958,53.718z"/>
	<path class="st0" d="M143.549,7.275h13.401l24.284,42.657V7.275h11.912v61.177h-12.781L155.46,25.045v43.407h-11.912V7.275z"/>
	<path class="st0" d="M256.391,7.275v10.833h-18.303v50.344h-12.866V18.108h-18.386V7.275H256.391z"/>
	<path class="st0" d="M281.889,7.275h14.464l21.645,61.177h-13.862l-4.037-12.576h-22.529l-4.147,12.576h-13.372L281.889,7.275z
		 M281.046,45.335h15.668l-7.729-24.072L281.046,45.335z"/>
	<path class="st0" d="M338.423,13.667c4.927-5.035,11.195-7.554,18.806-7.554c10.183,0,17.628,3.376,22.337,10.127
		c2.601,3.791,3.996,7.595,4.188,11.413H370.97c-0.813-2.932-1.857-5.146-3.131-6.641c-2.277-2.656-5.652-3.984-10.124-3.984
		c-4.554,0-8.146,1.875-10.775,5.624c-2.629,3.75-3.943,9.056-3.943,15.917c0,6.862,1.387,12.002,4.162,15.419
		c2.774,3.417,6.299,5.126,10.576,5.126c4.384,0,7.728-1.467,10.028-4.4c1.271-1.576,2.327-3.942,3.167-7.097h12.7
		c-1.095,6.669-3.894,12.092-8.397,16.27c-4.503,4.179-10.271,6.267-17.306,6.267c-8.705,0-15.548-2.822-20.53-8.467
		c-4.982-5.671-7.473-13.447-7.473-23.324C329.923,27.682,332.756,19.45,338.423,13.667z"/>
	<path class="st0" d="M445.214,7.275v10.833h-18.303v50.344h-12.866V18.108h-18.386V7.275H445.214z"/>
</g>
</svg>
