<?xml version="1.0" encoding="utf-8"?>
<!DOCTYPE svg PUBLIC "-//W3C//DTD SVG 1.1//EN" "http://www.w3.org/Graphics/SVG/1.1/DTD/svg11.dtd">
<svg version="1.1" id="Layer_1" xmlns="http://www.w3.org/2000/svg" xmlns:xlink="http://www.w3.org/1999/xlink" x="0px" y="0px"
	 width="335.606px" height="65.508px" viewBox="0 0 335.606 65.508" style="fill-opacity: 0.6; fill: #fff;"
	 xml:space="preserve">
<g>
	<path class="st0" d="M22.095,1.89h14.634l21.899,61.896H44.603l-4.084-12.724H17.725l-4.196,12.724H0L22.095,1.89z M21.243,40.396
		h15.852l-7.819-24.355L21.243,40.396z"/>
	<path class="st0" d="M120.922,8.482c1.894,2.632,2.841,5.781,2.841,9.448c0,3.779-0.956,6.817-2.867,9.112
		c-1.068,1.288-2.642,2.464-4.721,3.527c3.159,1.148,5.542,2.968,7.15,5.459c1.607,2.492,2.411,5.516,2.411,9.07
		c0,3.668-0.918,6.957-2.756,9.868c-1.169,1.932-2.63,3.556-4.383,4.871c-1.977,1.512-4.308,2.548-6.994,3.107
		c-2.687,0.561-5.602,0.84-8.747,0.84H74.968V1.89h29.912C112.427,2.002,117.775,4.199,120.922,8.482z M87.313,12.64v13.647h15.044
		c2.688,0,4.869-0.511,6.545-1.532c1.676-1.022,2.514-2.835,2.514-5.438c0-2.883-1.108-4.787-3.325-5.711
		c-1.912-0.644-4.35-0.966-7.314-0.966H87.313z M87.313,36.533v16.503h15.027c2.684,0,4.773-0.363,6.268-1.092
		c2.711-1.344,4.068-3.919,4.068-7.727c0-3.219-1.315-5.431-3.943-6.635c-1.467-0.672-3.529-1.021-6.185-1.05H87.313z"/>
	<path class="st0" d="M192.782,58.285c-4.676,4.815-11.437,7.223-20.282,7.223c-8.847,0-15.607-2.407-20.282-7.223
		c-6.271-5.906-9.406-14.417-9.406-25.531c0-11.338,3.135-19.848,9.406-25.531C156.892,2.408,163.653,0,172.5,0
		c8.846,0,15.606,2.408,20.282,7.223c6.242,5.684,9.364,14.193,9.364,25.531C202.146,43.868,199.024,52.379,192.782,58.285z
		 M184.698,48.879c3.009-3.779,4.514-9.154,4.514-16.125c0-6.942-1.505-12.311-4.514-16.104c-3.01-3.793-7.076-5.689-12.199-5.689
		s-9.211,1.89-12.262,5.669c-3.052,3.779-4.577,9.154-4.577,16.125s1.525,12.346,4.577,16.125c3.051,3.779,7.139,5.669,12.262,5.669
		S181.688,52.658,184.698,48.879z"/>
	<path class="st0" d="M220.27,1.89h13.144v38.015c0,4.252,0.502,7.356,1.506,9.314c1.562,3.469,4.965,5.203,10.209,5.203
		c5.216,0,8.605-1.734,10.167-5.203c1.004-1.958,1.506-5.063,1.506-9.314V1.89h13.144v38.045c0,6.579-1.021,11.702-3.06,15.369
		c-3.801,6.719-11.053,10.078-21.757,10.078s-17.971-3.359-21.799-10.078c-2.041-3.667-3.06-8.79-3.06-15.369V1.89z"/>
	<path class="st0" d="M335.606,1.89v10.96h-18.519v50.937H304.07V12.85h-18.603V1.89H335.606z"/>
</g>
</svg>
