<?xml version="1.0" encoding="utf-8"?>
<!DOCTYPE svg PUBLIC "-//W3C//DTD SVG 1.1//EN" "http://www.w3.org/Graphics/SVG/1.1/DTD/svg11.dtd">
<svg version="1.1" xmlns="http://www.w3.org/2000/svg" xmlns:xlink="http://www.w3.org/1999/xlink" x="0px" y="0px"
	 width="216.506px" height="64.331px" viewBox="0 0 216.506 64.331" style="fill: #fff; fill-opacity: 0.6;"
	 xml:space="preserve">
<g>
	<path class="st0" d="M44.077,20.669c-0.969-4.178-3.334-7.097-7.097-8.757c-2.103-0.914-4.441-1.37-7.014-1.37
		c-4.925,0-8.972,1.857-12.14,5.572c-3.168,3.714-4.752,9.299-4.752,16.755c0,7.513,1.715,12.828,5.146,15.948
		c3.431,3.121,7.332,4.681,11.704,4.681c4.289,0,7.803-1.229,10.542-3.69s4.427-5.686,5.063-9.673H31.377V29.924H56.86v32.83
		h-8.467l-1.287-7.637c-2.463,2.893-4.676,4.932-6.641,6.115c-3.376,2.065-7.526,3.099-12.451,3.099
		c-8.107,0-14.748-2.807-19.922-8.42C2.698,50.271,0,42.556,0,32.767c0-9.898,2.725-17.835,8.176-23.808
		C13.627,2.986,20.835,0,29.8,0c7.775,0,14.021,1.972,18.739,5.914c4.717,3.943,7.422,8.861,8.114,14.755H44.077z"/>
	<path class="st0" d="M87.525,62.754h-12.7V1.577h12.7V62.754z"/>
	<path class="st0" d="M142.075,1.577h13.281L134.5,62.754h-12.077L101.733,1.577h13.655L128.67,48.02L142.075,1.577z"/>
	<path class="st0" d="M215.012,12.41h-32.373V25.4h29.717v10.625h-29.717v15.73h33.867v10.998h-46.36V1.577h44.866V12.41z"/>
</g>
</svg>
