<?xml version="1.0" encoding="utf-8"?>
<!DOCTYPE svg PUBLIC "-//W3C//DTD SVG 1.1//EN" "http://www.w3.org/Graphics/SVG/1.1/DTD/svg11.dtd">
<svg version="1.1" xmlns="http://www.w3.org/2000/svg" xmlns:xlink="http://www.w3.org/1999/xlink" x="0px" y="0px"
	 width="328.374px" height="63.492px" viewBox="0 0 328.374 63.492" style="fill: #fff; fill-opacity: 0.6;"
	 xml:space="preserve">
<g>
	<path class="st0" d="M22.095,0h14.634l21.899,61.896H44.603l-4.084-12.724H17.725l-4.196,12.724H0L22.095,0z M21.243,38.507
		h15.852l-7.819-24.355L21.243,38.507z"/>
	<path class="st0" d="M72.866,0h12.934v50.769h30.906v11.128h-43.84V0z"/>
	<path class="st0" d="M177.926,6.593c1.894,2.632,2.841,5.781,2.841,9.448c0,3.779-0.956,6.817-2.867,9.112
		c-1.068,1.288-2.642,2.464-4.721,3.527c3.159,1.148,5.542,2.968,7.15,5.459c1.607,2.492,2.411,5.516,2.411,9.07
		c0,3.668-0.918,6.957-2.756,9.868c-1.169,1.932-2.63,3.556-4.383,4.871c-1.977,1.512-4.308,2.548-6.994,3.107
		c-2.687,0.561-5.602,0.84-8.747,0.84h-27.889V0h29.912C169.432,0.112,174.779,2.31,177.926,6.593z M144.318,10.75v13.647h15.044
		c2.688,0,4.869-0.511,6.545-1.532c1.676-1.022,2.514-2.835,2.514-5.438c0-2.883-1.108-4.787-3.325-5.711
		c-1.912-0.644-4.35-0.966-7.314-0.966H144.318z M144.318,34.644v16.503h15.027c2.684,0,4.773-0.363,6.268-1.092
		c2.711-1.344,4.068-3.919,4.068-7.727c0-3.219-1.315-5.431-3.943-6.635c-1.467-0.672-3.529-1.021-6.185-1.05H144.318z"/>
	<path class="st0" d="M200.232,0h13.144v38.015c0,4.252,0.502,7.356,1.506,9.314c1.562,3.469,4.965,5.203,10.209,5.203
		c5.216,0,8.605-1.734,10.167-5.203c1.004-1.958,1.506-5.063,1.506-9.314V0h13.144v38.045c0,6.579-1.021,11.702-3.06,15.369
		c-3.801,6.719-11.053,10.078-21.757,10.078s-17.971-3.359-21.799-10.078c-2.041-3.667-3.06-8.79-3.06-15.369V0z"/>
	<path class="st0" d="M309.764,0h18.61v61.896h-12.052V20.03c0-1.203,0.014-2.891,0.042-5.06c0.027-2.17,0.042-3.843,0.042-5.019
		l-11.729,51.944h-12.57L280.461,9.952c0,1.176,0.014,2.849,0.042,5.019c0.027,2.169,0.042,3.856,0.042,5.06v41.866h-12.052V0
		h18.82l11.267,48.669L309.764,0z"/>
</g>
</svg>
